<?xml version="1.0" standalone="no"?>
<!DOCTYPE svg PUBLIC "-//W3C//DTD SVG 20010904//EN"
 "http://www.w3.org/TR/2001/REC-SVG-20010904/DTD/svg10.dtd">
<svg version="1.0" xmlns="http://www.w3.org/2000/svg"
 width="266.000000pt" height="80.000000pt" viewBox="0 0 266.000000 80.000000"
 preserveAspectRatio="xMidYMid meet">

<g transform="translate(0.000000,80.000000) scale(0.100000,-0.100000)"
fill="#000000" stroke="none">
<path d="M19 733 c5 -10 93 -155 194 -323 l185 -305 60 -3 61 -3 3 63 3 63 33
-56 c50 -88 58 -90 72 -24 l12 56 -71 119 c-39 66 -75 122 -80 125 -5 3 -12
-12 -16 -33 -3 -20 -9 -43 -14 -50 -5 -8 -48 59 -121 188 l-114 200 -108 0
c-101 0 -108 -1 -99 -17z"/>
<path d="M546 738 c-19 -60 -17 -66 60 -188 42 -67 80 -118 84 -113 16 17 40
159 40 234 l0 79 -90 0 c-64 0 -92 -4 -94 -12z"/>
<path d="M870 223 c-14 -3 -29 -9 -34 -13 -9 -9 39 -100 53 -100 6 0 41 95 41
113 0 7 -19 7 -60 0z"/>
</g>
</svg>
